<svg width="22" height="22" viewBox="0 0 22 22" fill="none" xmlns="http://www.w3.org/2000/svg">
<rect width="22" height="22" rx="2" fill="#EEEEEE"/>
<path d="M14.5449 9.12012H13.9541V7.93848C13.9541 6.30781 12.6307 4.98438 11 4.98438C9.36934 4.98438 8.0459 6.30781 8.0459 7.93848V9.12012H7.45508C6.80518 9.12012 6.27344 9.65186 6.27344 10.3018V16.21C6.27344 16.8599 6.80518 17.3916 7.45508 17.3916H14.5449C15.1948 17.3916 15.7266 16.8599 15.7266 16.21V10.3018C15.7266 9.65186 15.1948 9.12012 14.5449 9.12012ZM11 14.4375C10.3501 14.4375 9.81836 13.9058 9.81836 13.2559C9.81836 12.606 10.3501 12.0742 11 12.0742C11.6499 12.0742 12.1816 12.606 12.1816 13.2559C12.1816 13.9058 11.6499 14.4375 11 14.4375ZM12.8315 9.12012H9.16846V7.93848C9.16846 6.92817 9.9897 6.10693 11 6.10693C12.0103 6.10693 12.8315 6.92817 12.8315 7.93848V9.12012Z" fill="black" fill-opacity="0.6"/>
</svg>
