<svg width="32" height="32" viewBox="0 0 32 32" fill="none" xmlns="http://www.w3.org/2000/svg">
<path d="M24.25 11.625H22.875V8.875C22.875 5.08 19.795 2 16 2C12.205 2 9.125 5.08 9.125 8.875V11.625H7.75C6.2375 11.625 5 12.8625 5 14.375V28.125C5 29.6375 6.2375 30.875 7.75 30.875H24.25C25.7625 30.875 27 29.6375 27 28.125V14.375C27 12.8625 25.7625 11.625 24.25 11.625ZM16 24C14.4875 24 13.25 22.7625 13.25 21.25C13.25 19.7375 14.4875 18.5 16 18.5C17.5125 18.5 18.75 19.7375 18.75 21.25C18.75 22.7625 17.5125 24 16 24ZM20.2625 11.625H11.7375V8.875C11.7375 6.52375 13.6488 4.6125 16 4.6125C18.3512 4.6125 20.2625 6.52375 20.2625 8.875V11.625Z" fill="white"/>
</svg>
